<svg id="Layer_1" data-name="Layer 1" xmlns="http://www.w3.org/2000/svg" width="114.74" height="41.83" viewBox="0 0 114.74 41.83"><defs><style>.cls-1{fill:none;stroke:#0bc8f1;stroke-miterlimit:10;stroke-width:2px;}.cls-2{fill:#0bc8f1;}.cls-3{fill:#222;}</style></defs><title>logo</title><g id="preset1"><g id="logo"><rect class="cls-1" x="7.21" y="7.21" width="27.58" height="27.58" transform="translate(20.91 -8.78) rotate(45)"/><polygon class="cls-2" points="12.06 17.76 8.91 20.91 12.06 24.06 12.06 27.06 5.91 20.91 12.06 14.76 12.06 17.76"/><polygon class="cls-2" points="27.06 29.76 20.91 35.91 14.76 29.76 17.76 29.76 20.91 32.91 24.06 29.76 27.06 29.76"/><polygon class="cls-2" points="27.06 12.06 24.06 12.06 20.91 8.91 17.76 12.06 14.76 12.06 20.91 5.91 27.06 12.06"/><polygon class="cls-2" points="35.91 20.91 29.76 27.06 29.76 24.06 32.91 20.91 29.76 17.76 29.76 14.76 35.91 20.91"/><path class="cls-2" d="M17,15.9h2v5.43A11.24,11.24,0,0,0,19.1,23a1.62,1.62,0,0,0,.62,1,2.15,2.15,0,0,0,1.34.37,2,2,0,0,0,1.3-.35,1.39,1.39,0,0,0,.53-.86,11.3,11.3,0,0,0,.09-1.7V15.9h2v5.26a13.53,13.53,0,0,1-.16,2.55,2.83,2.83,0,0,1-.6,1.26,3,3,0,0,1-1.18.82,5.12,5.12,0,0,1-1.93.3,5.54,5.54,0,0,1-2.18-.33,3.11,3.11,0,0,1-1.17-.86,2.76,2.76,0,0,1-.57-1.11,12.16,12.16,0,0,1-.2-2.54Z" transform="translate(-0.09 -0.09)"/></g><path class="cls-3" d="M52.64,31a6.06,6.06,0,0,1-3.36-.79,4,4,0,0,1-1.66-2.26,11.85,11.85,0,0,1-.46-3.5V11.26h3.46V24.82a11.63,11.63,0,0,0,.12,1.72,2.41,2.41,0,0,0,.56,1.3,2.08,2.08,0,0,0,2.69,0,2.61,2.61,0,0,0,.55-1.3,10.67,10.67,0,0,0,.13-1.72V11.26h3.43V24.41a11.87,11.87,0,0,1-.46,3.5A4.07,4.07,0,0,1,56,30.17,6.06,6.06,0,0,1,52.64,31Z" transform="translate(-0.09 -0.09)"/><path class="cls-3" d="M61.5,30.7V11.26h8V13.7H65.05v5.66h3.62v2.47H65.05V30.7Z" transform="translate(-0.09 -0.09)"/><path class="cls-3" d="M77.29,31A6.14,6.14,0,0,1,74,30.19,4.24,4.24,0,0,1,72.25,28a9.89,9.89,0,0,1-.53-3.41V17.3a9.59,9.59,0,0,1,.53-3.37A4.13,4.13,0,0,1,74,11.78a7.72,7.72,0,0,1,6.61,0,4.22,4.22,0,0,1,1.75,2.15,9.42,9.42,0,0,1,.54,3.37v7.3A9.53,9.53,0,0,1,82.37,28a4.39,4.39,0,0,1-1.75,2.21A6.1,6.1,0,0,1,77.29,31Zm0-2.62A1.89,1.89,0,0,0,78.6,28a1.93,1.93,0,0,0,.56-1.06,7,7,0,0,0,.14-1.46v-9A6.79,6.79,0,0,0,79.16,15a1.86,1.86,0,0,0-.56-1,1.93,1.93,0,0,0-1.31-.37A1.9,1.9,0,0,0,76,14a1.82,1.82,0,0,0-.58,1,6.73,6.73,0,0,0-.14,1.46v9a7.62,7.62,0,0,0,.13,1.46A1.83,1.83,0,0,0,76,28,1.9,1.9,0,0,0,77.29,28.34Z" transform="translate(-0.09 -0.09)"/><path class="cls-3" d="M86.12,30.7V11.26h3.55v17h4.7V30.7Z" transform="translate(-0.09 -0.09)"/><path class="cls-3" d="M96.83,30.7V11.26h3.5V30.7Z" transform="translate(-0.09 -0.09)"/><path class="cls-3" d="M109.21,31a6.14,6.14,0,0,1-3.29-.77A4.24,4.24,0,0,1,104.17,28a9.89,9.89,0,0,1-.53-3.41V17.3a9.59,9.59,0,0,1,.53-3.37,4.13,4.13,0,0,1,1.75-2.15,7.72,7.72,0,0,1,6.61,0,4.22,4.22,0,0,1,1.75,2.15,9.42,9.42,0,0,1,.54,3.37v7.3a9.53,9.53,0,0,1-.54,3.37,4.39,4.39,0,0,1-1.75,2.21A6.1,6.1,0,0,1,109.21,31Zm0-2.62a1.89,1.89,0,0,0,1.31-.38,1.93,1.93,0,0,0,.56-1.06,7,7,0,0,0,.14-1.46v-9a6.79,6.79,0,0,0-.14-1.46,1.86,1.86,0,0,0-.56-1,1.93,1.93,0,0,0-1.31-.37,1.9,1.9,0,0,0-1.27.37,1.82,1.82,0,0,0-.58,1,6.73,6.73,0,0,0-.14,1.46v9a7.62,7.62,0,0,0,.13,1.46,1.83,1.83,0,0,0,.56,1.06A1.9,1.9,0,0,0,109.21,28.34Z" transform="translate(-0.09 -0.09)"/></g></svg>